<svg width="322" height="69" viewBox="0 0 322 69" fill="none" xmlns="http://www.w3.org/2000/svg">
<path d="M27.7 39.1C26.62 39.1 25.42 39.04 24.1 38.92C22.78 38.8 21.28 38.56 19.6 38.2V55.84C19.6 57.7 19.66 59.17 19.78 60.25C19.9 61.27 20.26 62.05 20.86 62.59C21.52 63.13 22.42 63.49 23.56 63.67C24.76 63.85 26.65 64.03 29.23 64.21C29.35 65.17 29.35 66.13 29.23 67.09C27.91 67.09 26.32 67.06 24.46 67C22.66 67 20.86 67 19.06 67C17.32 66.94 15.85 66.91 14.65 66.91C13.51 66.91 12.07 66.94 10.33 67C8.65 67 6.94 67 5.2 67C3.52 67.06 2.02 67.09 0.7 67.09C0.58 66.19 0.58 65.23 0.7 64.21C3.58 63.91 5.65 63.64 6.91 63.4C8.17 63.1 8.95 62.5 9.25 61.6C9.55 60.7 9.7 59.17 9.7 57.01V15.16C9.7 12.64 9.55 10.84 9.25 9.76C8.95 8.68 8.17 7.99 6.91 7.69C5.65 7.33 3.58 7.03 0.7 6.79C0.58 5.89 0.58 4.93 0.7 3.91C1.9 3.91 3.4 3.94 5.2 4C7.06 4 8.86 4.03 10.6 4.08999C12.34 4.08999 13.6 4.08999 14.38 4.08999C15.52 4.08999 16.93 4.08999 18.61 4.08999C20.35 4.03 22.06 3.97 23.74 3.91C25.42 3.85 26.74 3.82 27.7 3.82C31.48 3.82 34.99 4.36 38.23 5.44C41.47 6.46 44.08 8.17 46.06 10.57C48.04 12.97 49.03 16.27 49.03 20.47C49.03 24.49 48.1 27.88 46.24 30.64C44.38 33.4 41.83 35.5 38.59 36.94C35.41 38.38 31.78 39.1 27.7 39.1ZM19.6 34.6C20.38 34.78 21.25 34.96 22.21 35.14C23.17 35.32 24.19 35.41 25.27 35.41C29.23 35.41 32.35 34.09 34.63 31.45C36.91 28.75 38.05 25.24 38.05 20.92C38.05 16.72 36.91 13.42 34.63 11.02C32.35 8.62 28.93 7.41999 24.37 7.41999C23.77 7.41999 23.02 7.45 22.12 7.51C21.28 7.57 20.44 7.66 19.6 7.78V34.6ZM53.6917 67.09C53.5117 66.13 53.5117 65.2 53.6917 64.3C55.7317 64.18 57.2317 64 58.1917 63.76C59.1517 63.46 59.7817 62.86 60.0817 61.96C60.3817 61.06 60.5317 59.62 60.5317 57.64V37.48C60.5317 35.14 60.4117 33.4 60.1717 32.26C59.9917 31.12 59.4217 30.34 58.4617 29.92C57.5617 29.44 56.0017 29.05 53.7817 28.75C53.6017 27.91 53.6017 27.13 53.7817 26.41C56.1817 25.93 58.5217 25.39 60.8017 24.79C63.0817 24.13 65.4817 23.29 68.0017 22.27L69.5317 22.81V30.73C73.7317 25.39 78.0217 22.72 82.4017 22.72C84.5017 22.72 86.0617 23.29 87.0817 24.43C88.1017 25.51 88.6117 26.74 88.6117 28.12C88.6117 29.74 88.0717 31 86.9917 31.9C85.9117 32.74 84.6817 33.16 83.3017 33.16C82.1617 33.16 81.0217 32.86 79.8817 32.26C78.8017 31.66 77.9917 30.73 77.4517 29.47C75.4117 29.47 73.5817 30.28 71.9617 31.9C70.4017 33.46 69.6217 35.29 69.6217 37.39V56.74C69.6217 59.08 69.7417 60.76 69.9817 61.78C70.2817 62.8 71.0017 63.46 72.1417 63.76C73.3417 64 75.2617 64.18 77.9017 64.3C78.0217 65.14 78.0217 66.07 77.9017 67.09C75.8617 67.09 73.7617 67.06 71.6017 67C69.4417 66.94 67.2217 66.91 64.9417 66.91C62.7217 66.91 60.7417 66.94 59.0017 67C57.3217 67.06 55.5517 67.09 53.6917 67.09ZM111.708 68.08C107.328 68.08 103.488 67.15 100.188 65.29C96.948 63.37 94.428 60.76 92.628 57.46C90.828 54.1 89.928 50.26 89.928 45.94C89.928 41.26 90.858 37.18 92.718 33.7C94.638 30.22 97.308 27.52 100.728 25.6C104.148 23.68 108.078 22.72 112.518 22.72C116.898 22.72 120.708 23.68 123.948 25.6C127.188 27.52 129.708 30.16 131.508 33.52C133.308 36.88 134.208 40.69 134.208 44.95C134.208 49.33 133.248 53.29 131.328 56.83C129.468 60.31 126.858 63.07 123.498 65.11C120.138 67.09 116.208 68.08 111.708 68.08ZM100.098 44.86C100.098 50.98 101.088 55.84 103.068 59.44C105.108 62.98 108.138 64.75 112.158 64.75C115.998 64.75 118.938 63.07 120.978 59.71C123.018 56.29 124.038 51.73 124.038 46.03C124.038 39.97 123.018 35.14 120.978 31.54C118.938 27.94 115.968 26.14 112.068 26.14C108.228 26.14 105.258 27.79 103.158 31.09C101.118 34.39 100.098 38.98 100.098 44.86ZM161.885 66.55L156.935 67.54L142.895 32.35C142.415 31.03 141.905 30.04 141.365 29.38C140.825 28.66 140.105 28.12 139.205 27.76C138.365 27.4 137.105 27.13 135.425 26.95C135.305 26.11 135.305 25.15 135.425 24.07C137.165 24.07 138.965 24.1 140.825 24.16C142.745 24.22 144.635 24.25 146.495 24.25C148.235 24.25 150.125 24.22 152.165 24.16C154.205 24.1 155.915 24.07 157.295 24.07C157.475 25.03 157.475 25.99 157.295 26.95C155.255 27.07 153.845 27.28 153.065 27.58C152.345 27.88 151.985 28.51 151.985 29.47C151.985 29.95 152.075 30.55 152.255 31.27C152.495 31.99 152.705 32.59 152.885 33.07C153.065 33.55 153.425 34.51 153.965 35.95C154.505 37.39 155.135 39.07 155.855 40.99C156.635 42.85 157.415 44.8 158.195 46.84C158.975 48.82 159.695 50.65 160.355 52.33C161.075 54.01 161.645 55.36 162.065 56.38C163.325 53.5 164.825 50.02 166.565 45.94C168.365 41.86 170.105 37.72 171.785 33.52C172.085 32.68 172.325 31.93 172.505 31.27C172.745 30.55 172.865 29.98 172.865 29.56C172.865 28.72 172.475 28.12 171.695 27.76C170.915 27.4 169.505 27.13 167.465 26.95C167.405 25.99 167.405 25.03 167.465 24.07C169.025 24.07 170.495 24.1 171.875 24.16C173.315 24.22 175.025 24.25 177.005 24.25C177.905 24.25 178.745 24.25 179.525 24.25C180.365 24.19 181.895 24.13 184.115 24.07C184.235 25.09 184.235 26.05 184.115 26.95C181.595 27.13 179.885 27.7 178.985 28.66C178.085 29.56 177.215 30.94 176.375 32.8L161.885 66.55ZM207.061 67.09C205.381 67.09 203.641 67.06 201.841 67C200.041 66.94 198.091 66.91 195.991 66.91C194.071 66.91 192.121 66.94 190.141 67C188.221 67.06 186.361 67.09 184.561 67.09C184.381 66.13 184.381 65.2 184.561 64.3C186.601 64.18 188.101 64 189.061 63.76C190.021 63.46 190.651 62.86 190.951 61.96C191.251 61.06 191.401 59.62 191.401 57.64V37.48C191.401 35.14 191.311 33.4 191.131 32.26C190.951 31.12 190.381 30.34 189.421 29.92C188.521 29.44 186.931 29.05 184.651 28.75C184.471 27.91 184.471 27.13 184.651 26.41C187.291 25.93 189.811 25.33 192.211 24.61C194.611 23.89 196.921 23.11 199.141 22.27L200.671 22.81C200.611 24.67 200.551 26.41 200.491 28.03C200.491 29.65 200.491 31.18 200.491 32.62V56.74C200.491 59.08 200.611 60.76 200.851 61.78C201.151 62.8 201.751 63.46 202.651 63.76C203.611 64 205.081 64.18 207.061 64.3C207.241 65.2 207.241 66.13 207.061 67.09ZM189.061 6.97C189.061 5.23 189.661 3.76 190.861 2.56C192.121 1.36 193.621 0.759995 195.361 0.759995C197.041 0.759995 198.481 1.36 199.681 2.56C200.941 3.76 201.571 5.2 201.571 6.88C201.571 8.44 200.971 9.88 199.771 11.2C198.571 12.46 197.041 13.09 195.181 13.09C193.501 13.09 192.061 12.49 190.861 11.29C189.661 10.09 189.061 8.64999 189.061 6.97ZM215.508 52.78C216.408 56.74 217.848 59.77 219.828 61.87C221.808 63.91 224.358 64.93 227.478 64.93C229.818 64.93 231.798 64.39 233.418 63.31C235.038 62.17 235.848 60.4 235.848 58C235.848 56.2 235.398 54.76 234.498 53.68C233.658 52.6 232.458 51.7 230.898 50.98C229.398 50.2 227.688 49.42 225.768 48.64C223.548 47.74 221.448 46.78 219.468 45.76C217.548 44.68 215.958 43.36 214.698 41.8C213.498 40.18 212.898 38.11 212.898 35.59C212.898 32.71 213.648 30.34 215.148 28.48C216.708 26.56 218.688 25.12 221.088 24.16C223.548 23.2 226.158 22.72 228.918 22.72C230.298 22.72 231.678 22.81 233.058 22.99C234.438 23.17 235.188 23.26 235.308 23.26C236.508 23.44 237.618 23.56 238.638 23.62C239.658 23.62 240.198 23.62 240.258 23.62C240.318 23.62 240.438 23.62 240.618 23.62C240.858 23.62 241.158 23.59 241.518 23.53C241.518 25.45 241.548 27.4 241.608 29.38C241.668 31.36 241.788 33.46 241.968 35.68C241.908 35.68 241.788 35.68 241.608 35.68C241.068 35.74 240.558 35.8 240.078 35.86C239.658 35.86 239.238 35.83 238.818 35.77C238.038 32.41 236.868 29.98 235.308 28.48C233.808 26.92 231.678 26.14 228.918 26.14C226.458 26.14 224.478 26.68 222.978 27.76C221.538 28.84 220.817 30.34 220.817 32.26C220.817 33.82 221.298 35.11 222.258 36.13C223.218 37.09 224.388 37.9 225.768 38.56C227.148 39.22 228.468 39.79 229.728 40.27C232.068 41.17 234.288 42.19 236.388 43.33C238.548 44.41 240.288 45.82 241.608 47.56C242.988 49.3 243.678 51.64 243.678 54.58C243.678 57.7 242.868 60.28 241.248 62.32C239.688 64.3 237.678 65.77 235.218 66.73C232.758 67.63 230.178 68.08 227.478 68.08C225.918 68.08 224.358 67.96 222.798 67.72C221.298 67.48 220.488 67.36 220.368 67.36C220.248 67.36 219.738 67.3 218.838 67.18C217.998 67.06 217.038 66.94 215.958 66.82C214.938 66.7 214.038 66.64 213.258 66.64C213.258 64.78 213.168 62.71 212.988 60.43C212.868 58.15 212.718 55.63 212.538 52.87C212.658 52.87 212.808 52.87 212.988 52.87C213.528 52.81 213.978 52.78 214.338 52.78C214.758 52.72 215.148 52.72 215.508 52.78ZM272.012 67.09C270.332 67.09 268.592 67.06 266.792 67C264.992 66.94 263.042 66.91 260.942 66.91C259.022 66.91 257.072 66.94 255.092 67C253.172 67.06 251.312 67.09 249.512 67.09C249.332 66.13 249.332 65.2 249.512 64.3C251.552 64.18 253.052 64 254.012 63.76C254.972 63.46 255.602 62.86 255.902 61.96C256.202 61.06 256.352 59.62 256.352 57.64V37.48C256.352 35.14 256.262 33.4 256.082 32.26C255.902 31.12 255.332 30.34 254.372 29.92C253.472 29.44 251.882 29.05 249.602 28.75C249.422 27.91 249.422 27.13 249.602 26.41C252.242 25.93 254.762 25.33 257.162 24.61C259.562 23.89 261.872 23.11 264.092 22.27L265.622 22.81C265.562 24.67 265.502 26.41 265.442 28.03C265.442 29.65 265.442 31.18 265.442 32.62V56.74C265.442 59.08 265.562 60.76 265.802 61.78C266.102 62.8 266.702 63.46 267.602 63.76C268.562 64 270.032 64.18 272.012 64.3C272.192 65.2 272.192 66.13 272.012 67.09ZM254.012 6.97C254.012 5.23 254.612 3.76 255.812 2.56C257.072 1.36 258.572 0.759995 260.312 0.759995C261.992 0.759995 263.432 1.36 264.632 2.56C265.892 3.76 266.522 5.2 266.522 6.88C266.522 8.44 265.922 9.88 264.722 11.2C263.522 12.46 261.992 13.09 260.132 13.09C258.452 13.09 257.012 12.49 255.812 11.29C254.612 10.09 254.012 8.64999 254.012 6.97ZM299.179 68.08C294.799 68.08 290.959 67.15 287.659 65.29C284.419 63.37 281.899 60.76 280.099 57.46C278.299 54.1 277.399 50.26 277.399 45.94C277.399 41.26 278.329 37.18 280.189 33.7C282.109 30.22 284.779 27.52 288.199 25.6C291.619 23.68 295.549 22.72 299.989 22.72C304.369 22.72 308.179 23.68 311.419 25.6C314.659 27.52 317.179 30.16 318.979 33.52C320.779 36.88 321.679 40.69 321.679 44.95C321.679 49.33 320.719 53.29 318.799 56.83C316.939 60.31 314.329 63.07 310.969 65.11C307.609 67.09 303.679 68.08 299.179 68.08ZM287.569 44.86C287.569 50.98 288.559 55.84 290.539 59.44C292.579 62.98 295.609 64.75 299.629 64.75C303.469 64.75 306.409 63.07 308.449 59.71C310.489 56.29 311.509 51.73 311.509 46.03C311.509 39.97 310.489 35.14 308.449 31.54C306.409 27.94 303.439 26.14 299.539 26.14C295.699 26.14 292.729 27.79 290.629 31.09C288.589 34.39 287.569 38.98 287.569 44.86Z" fill="#143A2F"/>
</svg>
